<svg width="24" height="24" viewBox="0 0 24 24" fill="none" xmlns="http://www.w3.org/2000/svg">
<g clip-path="url(#clip0_2168_1086)">
<path d="M11.9993 22.0832C17.5682 22.0832 22.0827 17.5687 22.0827 11.9998C22.0827 6.43097 17.5682 1.9165 11.9993 1.9165C6.43048 1.9165 1.91602 6.43097 1.91602 11.9998C1.91602 17.5687 6.43048 22.0832 11.9993 22.0832Z" fill="url(#paint0_linear_2168_1086)"/>
<g filter="url(#filter0_f_2168_1086)">
<path d="M12 20.25C16.5563 20.25 20.25 16.5563 20.25 12C20.25 7.44365 16.5563 3.75 12 3.75C7.44365 3.75 3.75 7.44365 3.75 12C3.75 16.5563 7.44365 20.25 12 20.25Z" fill="#FFF9F0"/>
</g>
<path d="M12.0007 19.7918C16.3039 19.7918 19.7923 16.3034 19.7923 12.0002C19.7923 7.69694 16.3039 4.2085 12.0007 4.2085C7.69743 4.2085 4.20898 7.69694 4.20898 12.0002C4.20898 16.3034 7.69743 19.7918 12.0007 19.7918Z" stroke="#E8D5C4" stroke-width="0.5"/>
<path d="M12.0009 4.94176C12.4059 4.94176 12.7342 4.61344 12.7342 4.20843C12.7342 3.80342 12.4059 3.4751 12.0009 3.4751C11.5959 3.4751 11.2676 3.80342 11.2676 4.20843C11.2676 4.61344 11.5959 4.94176 12.0009 4.94176Z" fill="#D4BBA3"/>
<path d="M19.7919 12.7333C20.1969 12.7333 20.5253 12.4049 20.5253 11.9999C20.5253 11.5949 20.1969 11.2666 19.7919 11.2666C19.3869 11.2666 19.0586 11.5949 19.0586 11.9999C19.0586 12.4049 19.3869 12.7333 19.7919 12.7333Z" fill="#D4BBA3"/>
<path d="M12.0009 20.5248C12.4059 20.5248 12.7342 20.1964 12.7342 19.7914C12.7342 19.3864 12.4059 19.0581 12.0009 19.0581C11.5959 19.0581 11.2676 19.3864 11.2676 19.7914C11.2676 20.1964 11.5959 20.5248 12.0009 20.5248Z" fill="#D4BBA3"/>
<path d="M4.20794 12.7333C4.61295 12.7333 4.94128 12.4049 4.94128 11.9999C4.94128 11.5949 4.61295 11.2666 4.20794 11.2666C3.80293 11.2666 3.47461 11.5949 3.47461 11.9999C3.47461 12.4049 3.80293 12.7333 4.20794 12.7333Z" fill="#D4BBA3"/>
<path d="M7.41602 6.9585C7.41602 6.1991 6.80041 5.5835 6.04102 5.5835C5.28162 5.5835 4.66602 6.1991 4.66602 6.9585C4.66602 7.71789 6.04102 8.79183 6.04102 8.79183C6.04102 8.79183 7.41602 7.71789 7.41602 6.9585Z" fill="#E8D5C4"/>
<path d="M19.334 6.9585C19.334 6.1991 18.7184 5.5835 17.959 5.5835C17.1996 5.5835 16.584 6.1991 16.584 6.9585C16.584 7.71789 17.959 8.79183 17.959 8.79183C17.959 8.79183 19.334 7.71789 19.334 6.9585Z" fill="#E8D5C4"/>
<path d="M12 11.9998V7.4165" stroke="#D4BBA3" stroke-width="2" stroke-linecap="round"/>
<path d="M12 12H15.6667" stroke="#D4BBA3" stroke-width="2" stroke-linecap="round"/>
<path d="M12.0004 13.0999C12.6079 13.0999 13.1004 12.6074 13.1004 11.9999C13.1004 11.3924 12.6079 10.8999 12.0004 10.8999C11.3929 10.8999 10.9004 11.3924 10.9004 11.9999C10.9004 12.6074 11.3929 13.0999 12.0004 13.0999Z" fill="#E8D5C4"/>
<path d="M11.9993 2.8335L12.4577 4.2085L13.8327 4.66683L12.4577 5.12516L11.9993 6.50016L11.541 5.12516L10.166 4.66683L11.541 4.2085L11.9993 2.8335Z" fill="#E8D5C4"/>
<path d="M21.1673 12L20.709 13.375L19.334 13.8333L20.709 14.2917L21.1673 15.6667L21.6257 14.2917L23.0007 13.8333L21.6257 13.375L21.1673 12Z" fill="#E8D5C4"/>
<path d="M11.9993 21.1667L12.4577 19.7917L13.8327 19.3333L12.4577 18.875L11.9993 17.5L11.541 18.875L10.166 19.3333L11.541 19.7917L11.9993 21.1667Z" fill="#E8D5C4"/>
<path d="M2.83333 12.0002L3.29167 10.6252L4.66667 10.1668L3.29167 9.7085L2.83333 8.3335L2.375 9.7085L1 10.1668L2.375 10.6252L2.83333 12.0002Z" fill="#E8D5C4"/>
</g>
<defs>
<filter id="filter0_f_2168_1086" x="1.75" y="1.75" width="20.5" height="20.5" filterUnits="userSpaceOnUse" color-interpolation-filters="sRGB">
<feFlood flood-opacity="0" result="BackgroundImageFix"/>
<feBlend mode="normal" in="SourceGraphic" in2="BackgroundImageFix" result="shape"/>
<feGaussianBlur stdDeviation="1" result="effect1_foregroundBlur_2168_1086"/>
</filter>
<linearGradient id="paint0_linear_2168_1086" x1="1.91602" y1="1.9165" x2="485.916" y2="485.916" gradientUnits="userSpaceOnUse">
<stop stop-color="#F5E6D3"/>
<stop offset="1" stop-color="#E8D5C4"/>
</linearGradient>
<clipPath id="clip0_2168_1086">
<rect width="22" height="22" fill="white" transform="translate(1 1)"/>
</clipPath>
</defs>
</svg>
